<svg xmlns="http://www.w3.org/2000/svg" xml:space="preserve" fill-rule="evenodd" stroke-linejoin="round" stroke-miterlimit="2" clip-rule="evenodd" viewBox="0 0 1667 1667"><path fill="#bbdc00" d="M110.718 560.496h1445.23v545.675H110.718z"/><path fill="#0d2f3b" fill-rule="nonzero" d="M833.333 0C376.18 0 0 376.18 0 833.333c0 457.153 376.18 833.334 833.333 833.334 457.153 0 833.333-376.18 833.334-833.333C1666.667 376.18 1290.486 0 833.333 0ZM808.61 870.373a32.679 32.679 0 0 1-23.616 10.159H559.938a99.564 99.564 0 0 0 27.409 54.536 94.605 94.605 0 0 0 71.746 29.857 96.63 96.63 0 0 0 72.946-30.194 109.475 109.475 0 0 0 13.154-16.406c3.111-4.786 7.052-7.377 18.938-7.377l19.606-.004a17.407 17.407 0 0 1 15.551 8.143 15.588 15.588 0 0 1 .077 15.563 176.37 176.37 0 0 1-27.615 38.482 154.84 154.84 0 0 1-112.657 46.451 150.908 150.908 0 0 1-111.644-46.576c-60.257-63.162-60.232-163.87.056-227.002 61.636-61.331 162.767-61.229 224.277.227a154.313 154.313 0 0 1 45.579 99.673 32.217 32.217 0 0 1-8.751 24.468ZM428.613 972.8a153.496 153.496 0 0 1-112.678 46.467 150.9 150.9 0 0 1-111.644-46.576 156.377 156.377 0 0 1-44.974-113.331V595.418c0-13.174 10.896-22.737 25.907-22.737h3.257c15.097 0 26.058 9.563 26.058 22.737v141.499c62.472-52.944 156.277-49.001 214.086 8.999 61.08 62.749 61.074 164.142-.012 226.884Zm945.96 45.911a150.906 150.906 0 0 1-111.639-46.58c-60.257-63.162-60.234-163.869.052-227.002 61.637-61.331 162.769-61.229 224.281.227 61.076 62.753 61.069 164.145-.016 226.889a153.492 153.492 0 0 1-112.678 46.466Zm-288.755-15.587a19.138 19.138 0 0 1-17.108 10.502h-19.396a22.086 22.086 0 0 1-17.733-8.99l-77.686-106.035-78.003 107.146a19.275 19.275 0 0 1-15.495 7.878h-20.178a19.749 19.749 0 0 1-15.396-6.934c-5.567-6.739-5.862-16.47-.714-23.535l95.294-130.5-86.243-117.04c-5.168-7.012-4.941-16.706.551-23.467a21.86 21.86 0 0 1 18.435-7.06h13.337a27.05 27.05 0 0 1 21.703 10.981l66.726 90.74 68.716-92.816a22.08 22.08 0 0 1 17.668-8.905h16.042a21.94 21.94 0 0 1 18.227 7.02c5.512 6.787 5.741 16.517.555 23.556l-86.737 116.992 95.768 130.467a19.103 19.103 0 0 1 1.667 20Zm92.056-13.487c-.015 13.021-10.725 23.731-23.747 23.746h-7.733c-13.021-.015-23.731-10.725-23.746-23.746V729.051c.256-13.13 11.128-23.792 24.261-23.792.498 0 .996.015 1.493.046h3.386a24.383 24.383 0 0 1 1.645-.056c13.168 0 24.092 10.638 24.441 23.802v260.586Zm-861.376-235.53a95.007 95.007 0 0 0-72.013 30.141l-.669.698c-38.105 42.431-37.943 107.564.373 149.805a94.595 94.595 0 0 0 71.746 29.858 96.698 96.698 0 0 0 72.967-30.214c39.078-42.088 39.069-108.017-.021-150.094a96.005 96.005 0 0 0-72.383-30.194Zm1058.64-.556a95 95 0 0 0-72.009 30.138l-.32.332c-38.437 42.389-38.428 107.796.02 150.175a94.62 94.62 0 0 0 71.746 29.853 96.613 96.613 0 0 0 72.946-30.194c39.098-42.085 39.098-108.029 0-150.114a95.965 95.965 0 0 0-72.383-30.19Zm-715.48.872a95.004 95.004 0 0 0-72.013 30.137l-.301.312a100.78 100.78 0 0 0-24.626 41.561h194.363a99.772 99.772 0 0 0-25.04-41.816 95.967 95.967 0 0 0-72.383-30.194Zm490.599-99.182c-21.015 0-38.308-17.293-38.308-38.308s17.293-38.308 38.308-38.308 38.308 17.293 38.308 38.308c-.024 21.006-17.302 38.284-38.308 38.308Z"/></svg>